<?xml version="1.0" standalone="no"?>
<!DOCTYPE svg PUBLIC "-//W3C//DTD SVG 20010904//EN"
 "http://www.w3.org/TR/2001/REC-SVG-20010904/DTD/svg10.dtd">
<svg version="1.0" xmlns="http://www.w3.org/2000/svg"
 width="1080.000000pt" height="1080.000000pt" viewBox="0 0 1080.000000 1080.000000"
 preserveAspectRatio="xMidYMid meet">
<metadata>
Created by potrace 1.16, written by Peter Selinger 2001-2019
</metadata>
<g transform="translate(0.000000,1080.000000) scale(0.100000,-0.100000)"
fill="#000000" stroke="none">
<path d="M6729 8647 c-84 -32 -132 -89 -163 -196 -32 -111 -56 -325 -56 -509
0 -102 -4 -171 -9 -164 -15 25 -19 -96 -10 -394 9 -342 19 -453 59 -669 16
-88 50 -284 75 -435 26 -151 57 -327 70 -390 22 -112 23 -123 14 -460 -16
-675 -63 -1193 -134 -1465 -37 -139 -111 -245 -172 -245 -99 0 -203 153 -333
493 -21 53 -49 93 -37 51 19 -62 13 -68 -9 -9 -25 68 -186 699 -199 781 -4 26
5 117 24 250 40 272 69 582 80 869 6 134 17 263 26 310 19 95 21 300 5 585
-28 491 -122 725 -336 831 -153 76 -300 34 -365 -104 -46 -99 -71 -265 -76
-512 -4 -141 -9 -212 -17 -217 -15 -10 -13 -468 3 -688 14 -186 22 -251 56
-430 14 -69 43 -235 65 -370 47 -286 104 -589 126 -675 14 -57 14 -68 -6 -175
-29 -162 -103 -492 -145 -645 -55 -199 -93 -267 -139 -249 -28 11 -75 128
-106 264 -30 137 -48 179 -61 144 -15 -45 -51 254 -78 652 -22 311 -34 370
-93 432 -69 72 -180 101 -254 66 -100 -48 -163 -183 -228 -491 -44 -210 -137
-746 -142 -823 -3 -41 -11 -124 -17 -185 l-13 -110 -33 135 c-60 250 -141 678
-141 750 0 54 10 100 45 212 67 211 114 400 126 512 7 65 23 132 44 190 66
182 90 437 82 870 -6 304 -16 431 -52 622 -16 88 -103 394 -130 457 -17 40
-71 122 -114 172 -15 17 -18 23 -7 15 17 -13 19 -13 15 0 -3 8 -33 34 -68 58
-57 38 -69 42 -123 42 -176 0 -318 -184 -382 -496 -18 -86 -61 -452 -78 -669
-17 -206 -17 -327 0 -347 6 -8 12 -37 11 -64 -1 -54 16 -513 26 -669 26 -444
122 -908 316 -1528 l50 -159 -29 -62 c-52 -111 -296 -503 -341 -547 -14 -14
-27 -2 -136 119 -115 127 -155 180 -105 137 13 -11 -20 31 -73 93 -53 62 -99
111 -101 110 -8 -4 -55 62 -82 114 -13 25 -26 66 -29 90 -4 24 -9 54 -11 68
-5 24 -5 25 10 5 16 -19 16 -19 10 10 -27 123 -80 185 -159 185 -58 0 -101
-32 -141 -104 -43 -79 -67 -179 -62 -260 6 -97 67 -214 168 -320 45 -48 89
-107 104 -138 27 -57 164 -215 276 -316 87 -79 108 -117 92 -169 -6 -22 -31
-68 -53 -104 -76 -116 -199 -397 -234 -534 -8 -33 -18 -90 -21 -126 -11 -111
27 -268 61 -255 8 3 23 -10 37 -30 28 -42 97 -90 152 -106 23 -7 82 -12 131
-12 162 2 327 75 451 198 117 117 174 261 174 441 0 206 -73 380 -285 673 -30
42 -26 54 61 183 35 52 100 165 143 250 l80 154 16 -40 c62 -151 146 -296 200
-344 59 -52 154 -50 205 4 21 22 22 33 25 182 1 88 12 231 24 323 12 91 24
221 27 290 5 105 9 133 30 175 17 37 37 129 74 350 46 279 81 437 111 510 14
36 14 39 35 -135 9 -74 19 -160 23 -190 5 -34 4 -57 -2 -62 -12 -7 -1 -332 14
-448 16 -114 104 -462 133 -526 28 -60 108 -162 135 -171 9 -3 23 -15 32 -25
22 -28 169 -69 264 -75 150 -10 234 51 279 199 33 110 53 253 66 478 9 169 30
422 34 427 1 1 24 -75 50 -170 81 -285 167 -488 283 -670 65 -102 183 -216
263 -256 270 -131 485 19 589 410 82 309 140 775 142 1144 0 88 4 183 7 210
l7 50 24 -90 c76 -288 186 -554 301 -730 179 -273 428 -372 617 -245 131 88
203 238 273 566 57 270 100 660 100 905 0 70 3 135 6 144 5 11 20 -18 44 -83
56 -147 147 -276 182 -256 7 4 10 4 6 -1 -13 -14 54 -52 133 -76 95 -30 236
-32 323 -6 164 51 267 261 316 642 11 88 31 214 45 280 14 66 45 250 68 408
l43 289 50 2 c69 4 139 29 209 75 l60 40 6 -57 c4 -31 12 -138 19 -237 6 -99
16 -202 22 -230 5 -27 11 -86 13 -130 3 -87 43 -251 76 -318 54 -106 159 -205
248 -236 58 -19 132 -14 187 14 42 21 55 34 75 78 13 28 30 57 37 62 18 14
116 238 146 335 44 138 74 311 111 640 55 487 57 692 7 760 -28 37 -58 38 -77
1 -17 -33 -16 -30 -106 -661 -34 -234 -66 -461 -73 -505 -7 -44 -9 -83 -4 -86
11 -7 -44 -163 -87 -249 -38 -74 -65 -103 -89 -94 -18 7 -42 82 -51 164 -3 30
-20 145 -36 255 -17 109 -36 289 -44 400 -19 263 -23 289 -49 327 -34 52 -68
63 -146 50 -71 -12 -170 -49 -170 -64 0 -5 -4 -6 -10 -3 -5 3 -10 1 -10 -5 0
-7 -7 -9 -16 -6 -8 3 -13 2 -10 -3 3 -5 -18 -19 -47 -31 -51 -22 -99 -27 -140
-14 -14 4 -17 3 -12 -6 5 -9 4 -11 -3 -6 -19 12 -32 77 -32 164 0 66 3 82 15
82 18 0 19 13 4 80 -9 41 -16 53 -42 66 -24 13 -38 14 -61 6 -17 -6 -45 -13
-62 -17 -108 -22 -192 -201 -165 -351 15 -78 49 -144 92 -172 19 -14 33 -31
32 -40 -2 -10 -12 -87 -23 -172 -24 -183 -30 -220 -65 -405 -14 -77 -26 -169
-27 -205 0 -120 -85 -397 -174 -571 -133 -259 -238 -200 -360 202 -25 85 -57
175 -70 201 -13 26 -24 57 -24 68 0 12 36 63 80 115 90 107 144 210 209 398
93 269 92 457 -1 594 -80 118 -263 137 -442 46 -101 -51 -189 -168 -235 -313
-48 -150 -55 -238 -52 -655 5 -814 -70 -1579 -175 -1801 -31 -65 -94 -124
-132 -124 -67 0 -140 79 -225 247 -30 59 -69 149 -87 198 -36 100 -65 146 -50
79 5 -21 7 -40 5 -42 -17 -17 -217 785 -217 872 0 34 14 156 31 271 39 273 59
496 71 791 6 159 15 264 26 314 30 129 16 670 -22 900 -34 199 -106 367 -194
451 -97 94 -248 141 -341 106z m183 -224 c66 -76 138 -371 132 -543 -2 -62 -1
-67 5 -25 26 192 36 -764 12 -1248 -8 -158 -16 -286 -18 -283 -6 5 -110 549
-148 771 -131 771 -138 1345 -15 1345 9 0 24 -8 32 -17z m-1317 -762 c68 -101
119 -340 118 -551 0 -116 1 -123 6 -50 l6 85 10 -120 c21 -250 2 -1363 -24
-1412 -6 -12 -88 398 -146 729 -131 758 -140 1358 -20 1358 18 0 32 -11 50
-39z m-1735 -121 c69 -69 139 -367 171 -730 8 -92 9 -241 5 -475 -4 -187 -8
-400 -10 -474 -1 -75 -7 -136 -12 -138 -5 -2 -8 -22 -7 -46 2 -36 1 -38 -7
-17 -8 20 -8 16 -5 -20 7 -63 -81 -548 -104 -572 -3 -4 -26 129 -50 295 -23
166 -47 307 -52 313 -13 16 -27 258 -38 694 -6 212 -13 441 -15 510 -6 164 10
564 25 615 6 22 16 46 21 53 16 18 55 15 78 -8z m4680 -307 c23 -24 44 -59 55
-93 10 -30 26 -69 35 -87 16 -30 16 -38 -2 -149 -10 -65 -32 -157 -48 -205
-40 -121 -139 -312 -140 -272 0 6 -7 70 -15 143 -24 205 -32 376 -23 480 18
215 56 265 138 183z m-4880 -104 c13 -128 27 -386 45 -869 8 -223 24 -486 34
-585 11 -99 25 -228 31 -287 6 -58 22 -177 35 -265 14 -87 27 -174 30 -193 l5
-35 -10 30 c-36 105 -74 288 -110 526 -44 293 -40 222 -70 1109 -10 312 -13
677 -5 669 2 -3 9 -48 15 -100z m4619 -1249 c16 -52 36 -124 45 -160 8 -36 26
-97 40 -135 14 -39 18 -61 10 -51 -7 11 -14 25 -14 31 0 6 -11 26 -25 45 -13
18 -32 56 -41 84 -9 28 -30 77 -45 108 -28 55 -49 155 -48 228 l0 35 24 -45
c13 -25 37 -88 54 -140z m-4959 -3260 c59 -118 70 -166 70 -317 0 -91 -4 -144
-14 -166 -17 -40 -118 -150 -171 -187 -139 -95 -203 -42 -192 157 6 120 21
166 118 363 42 86 82 174 89 195 7 22 17 46 23 53 14 18 26 3 77 -98z"/>
<path d="M2178 5549 c-18 -17 -89 -67 -157 -111 -69 -44 -204 -137 -300 -207
-97 -70 -265 -189 -374 -264 -109 -75 -213 -148 -232 -163 -19 -14 -35 -22
-35 -16 0 5 -24 20 -52 33 -41 18 -71 24 -133 24 -91 0 -138 -14 -177 -50 -36
-34 -44 -69 -28 -124 8 -25 16 -72 18 -104 l4 -59 -49 -46 c-26 -26 -90 -72
-142 -102 -124 -72 -171 -118 -171 -165 0 -57 35 -114 83 -136 23 -10 58 -19
78 -19 52 0 156 34 213 70 26 17 50 29 53 26 3 -2 53 -260 111 -573 59 -312
110 -570 113 -573 4 -3 10 -27 14 -55 4 -27 9 -59 11 -70 2 -11 1 -14 -2 -7
-4 8 -12 2 -23 -19 -11 -20 -50 -54 -101 -88 -46 -31 -93 -68 -103 -83 -41
-56 -12 -116 69 -138 42 -12 121 -10 154 4 12 5 21 -24 48 -166 52 -266 60
-314 82 -495 12 -92 27 -190 35 -218 22 -82 36 -183 44 -311 6 -103 11 -129
35 -177 48 -100 144 -162 296 -193 188 -38 345 14 476 159 120 132 239 370
350 702 67 199 78 241 82 315 6 137 -25 182 -82 119 -18 -19 -65 -88 -106
-154 -373 -606 -434 -698 -526 -788 -48 -48 -49 -48 -59 -25 -19 43 -27 52
-35 37 -5 -7 -11 7 -15 37 -30 210 -155 930 -200 1152 -30 150 -55 285 -55
300 0 34 27 61 125 125 39 25 85 65 103 89 18 24 103 99 189 168 92 73 164
138 173 157 25 48 38 61 103 105 89 60 123 133 75 159 -18 10 -24 8 -40 -11
-10 -12 -46 -40 -80 -62 -35 -22 -135 -91 -223 -154 -222 -157 -460 -321 -462
-319 -5 3 -123 736 -153 945 -17 118 -37 250 -46 294 -19 95 -12 142 24 170
15 11 54 46 87 77 33 31 88 74 121 97 56 38 144 124 144 142 0 5 27 28 59 52
163 121 411 356 411 389 0 11 8 23 18 26 29 11 146 108 190 158 49 56 61 98
36 126 -23 25 -28 24 -66 -12z m-1138 -2224 c22 -101 50 -356 49 -430 -1 -49
-96 511 -103 610 l-5 70 19 -75 c11 -41 29 -120 40 -175z"/>
</g>
</svg>
